<?xml version='1.0' encoding='utf-8'?>
<svg xmlns="http://www.w3.org/2000/svg" id="Layer_1" version="1.1" viewBox="0 0 900 743.8" fill="none">
  
  <defs>
    <style>
      .st0 {
        fill: #746b6b;
      }

      .st1 {
        fill: #0d0b0b;
      }
    </style>
  </defs>
  <g>
    <path class="st1" d="M134.2,315.9h0c0,62.1,50.4,112.5,112.5,112.5h0V90.9h-112.5v225Z" fill="none" stroke="#DC0119" stroke-width="3" stroke-linejoin="round" stroke-linecap="round" />
    <path class="st1" d="M493.9,90.9h-112.5c-62,0-112.2,50.5-112.2,112.5h0v225h112.5v-225h112.2v-112.5h0Z" fill="none" stroke="#DC0119" stroke-width="3" stroke-linejoin="round" stroke-linecap="round" />
    <path class="st1" d="M404.2,315.9h112.5v112.5h0c62.1,0,112.5-50.4,112.5-112.5h0V90.9l-225,225Z" fill="none" stroke="#DC0119" stroke-width="3" stroke-linejoin="round" stroke-linecap="round" />
    <polygon class="st0" points="651.7 259.9 764.2 372.4 764.2 147.4 651.7 259.9" fill="none" stroke="#DC0119" stroke-width="3" stroke-linejoin="round" stroke-linecap="round" />
  </g>
  <g>
    <path class="st1" d="M226.7,613c-1.9-.8-4.4-1.1-7.6-1.1h-5.5c-1.5,0-2.9,0-4.2.2-1.3,0-2.7.2-4.1.4v41.4h3.9v-17c.5,0,1,0,1.6,0,1.2,0,2.6.2,4.1.2h4.7c3.1,0,5.5-.4,7.4-1.1,1.8-.7,3.1-2,3.9-3.8.8-1.8,1.2-4.4,1.2-7.7s-.4-5.9-1.2-7.7-2.2-3.1-4-3.9h-.2ZM227.1,630.1c-.6,1.3-1.5,2.3-2.8,2.8s-3.1.8-5.2.8h-9.9v-18.4h9.9c3.2,0,3.9.3,5.2.8s2.2,1.4,2.8,2.8c.6,1.3.8,3.2.8,5.7s-.3,4.3-.8,5.6h0Z" fill="none" stroke="#DC0119" stroke-width="3" stroke-linejoin="round" stroke-linecap="round" />
    <path class="st1" d="M273.9,637.8c-.5-.8-1.1-1.5-1.7-2-.6-.5-1.3-.9-2-1.1v-.2c1.8-.3,3.3-.8,4.4-1.6,1.1-.8,1.9-2,2.5-3.5.5-1.5.8-3.4.8-5.7s-.4-5.5-1.3-7.2c-.9-1.7-2.2-2.9-4.1-3.6-1.9-.7-4.4-1.1-7.4-1.1h-5.5c-1.5,0-3,0-4.2.2-1.3,0-2.7.2-4.1.4v41.4h3.9v-17.9h10.2c2.4,0,2.7.4,3.7,1.1,1,.7,1.7,1.9,2.3,3.7l4,13h4.2l-4.2-13.1c-.3-1.1-.7-2-1.2-2.8h-.3ZM264.9,632.6h-9.9v-17.2h9.9c3.2,0,4,.2,5.3.7s2.2,1.3,2.8,2.6c.6,1.2.8,3,.8,5.3s-.3,4-.8,5.2c-.6,1.3-1.5,2.1-2.8,2.6s-3.1.8-5.3.8h0Z" fill="none" stroke="#DC0119" stroke-width="3" stroke-linejoin="round" stroke-linecap="round" />
    <path class="st1" d="M325.2,616.3c-1.2-1.7-2.9-2.9-4.9-3.6-2-.7-4.5-1.1-7.5-1.1s-5.5.4-7.5,1.1c-2,.7-3.7,1.9-4.9,3.6-1.2,1.7-2.2,3.9-2.7,6.6-.6,2.8-.9,6.1-.9,10.1s.3,7.4.9,10.1c.6,2.8,1.5,5,2.7,6.6,1.2,1.7,2.9,2.9,4.9,3.6,2,.7,4.5,1.1,7.5,1.1s5.5-.4,7.5-1.1c2-.7,3.7-1.9,4.9-3.6,1.2-1.7,2.1-3.9,2.7-6.6.6-2.8.8-6.1.8-10.1s-.3-7.4-.8-10.1c-.6-2.8-1.5-5-2.7-6.6ZM323.5,643.7c-.7,2.6-2,4.5-3.7,5.6s-4.1,1.7-7,1.7-5.3-.6-7-1.7c-1.7-1.1-3-3-3.7-5.6s-1.1-6.1-1.1-10.6.4-8,1.1-10.6c.7-2.6,1.9-4.5,3.7-5.6,1.7-1.1,4.1-1.7,7-1.7s5.3.6,7,1.7c1.7,1.1,2.9,3,3.7,5.6.7,2.6,1.1,6.1,1.1,10.6s-.4,8-1.1,10.6Z" fill="none" stroke="#DC0119" stroke-width="3" stroke-linejoin="round" stroke-linecap="round" />
    <path class="st1" d="M375.4,616.5c-1.2-1.6-2.9-2.8-4.9-3.6-2-.7-4.4-1.1-7.3-1.1s-5.3,0-7.7.2c-2.4,0-4.6.2-6.7.4v41.4c2.1.2,4.3.3,6.7.4,2.4,0,4.9.2,7.7.2s5.3-.4,7.3-1.1c2-.7,3.6-1.9,4.9-3.6,1.2-1.6,2.1-3.8,2.7-6.5s.8-6.1.8-10-.3-7.3-.8-10c-.6-2.7-1.5-4.9-2.7-6.5v-.2ZM373.8,643.6c-.7,2.6-2,4.5-3.7,5.5-1.7,1.1-4,1.6-6.9,1.6h-10.5v-35.3h10.5c2.5,0,5.2.6,6.9,1.7,1.7,1.1,2.9,3,3.7,5.6.7,2.6,1.1,6.1,1.1,10.6s-.4,8-1.1,10.6v-.3Z" fill="none" stroke="#DC0119" stroke-width="3" stroke-linejoin="round" stroke-linecap="round" />
    <path class="st1" d="M424.3,638.1c0,3.2-.4,5.7-1,7.6-.7,1.9-1.8,3.2-3.4,4s-3.7,1.2-6.3,1.2-4.8-.4-6.3-1.2c-1.6-.8-2.7-2.2-3.4-4-.7-1.9-1-4.4-1-7.6v-25.7h-3.9v25.7c0,4,.5,7.1,1.4,9.5,1,2.4,2.5,4.2,4.7,5.2,2.2,1.1,5.1,1.7,8.7,1.7s6.4-.6,8.5-1.7c2.1-1.1,3.7-2.8,4.6-5.2,1-2.4,1.4-5.6,1.4-9.5v-25.7h-4v25.7h0Z" fill="none" stroke="#DC0119" stroke-width="3" stroke-linejoin="round" stroke-linecap="round" />
    <path class="st1" d="M470.4,650.8c-1.7,0-3.8.2-6.3.2s-5.3-.6-7-1.7c-1.7-1.1-2.9-3-3.7-5.6-.7-2.6-1.1-6.1-1.1-10.6s.4-8,1.1-10.6,1.9-4.5,3.7-5.6c1.7-1.1,4.1-1.7,7-1.7h4c1.1,0,2.2,0,3.2.2,1,0,2.1.2,3.3.4l.5-3c-1.1-.3-2.2-.5-3.2-.7s-2.2-.3-3.4-.4c-1.2,0-2.7,0-4.3,0-3.9,0-7,.7-9.3,2.1s-4,3.6-5.1,6.8-1.6,7.3-1.6,12.6.5,9.5,1.6,12.6c1,3.1,2.7,5.4,5.1,6.8,2.3,1.4,5.4,2.1,9.3,2.1s4.8,0,6.6-.3,3.5-.5,5.2-1l-.5-2.9c-1.6.2-3.3.4-5,.5h-.1Z" fill="none" stroke="#DC0119" stroke-width="3" stroke-linejoin="round" stroke-linecap="round" />
    <polygon class="st1" points="506.1 612.4 492.4 612.4 492.4 615.8 506.1 615.8 506.1 653.8 510.1 653.8 510.1 615.8 523.9 615.8 523.9 612.4 510.1 612.4 506.1 612.4" fill="none" stroke="#DC0119" stroke-width="3" stroke-linejoin="round" stroke-linecap="round" />
    <rect class="st1" x="542.3" y="612.4" width="3.9" height="41.4" fill="none" stroke="#DC0119" stroke-width="3" stroke-linejoin="round" stroke-linecap="round" />
    <path class="st1" d="M594.9,616.3c-1.2-1.7-2.9-2.9-4.9-3.6-2-.7-4.5-1.1-7.5-1.1s-5.5.4-7.5,1.1c-2,.7-3.7,1.9-4.9,3.6-1.2,1.7-2.2,3.9-2.7,6.6-.6,2.8-.9,6.1-.9,10.1s.3,7.4.9,10.1c.6,2.8,1.5,5,2.7,6.6s2.9,2.9,4.9,3.6c2,.7,4.5,1.1,7.5,1.1s5.5-.4,7.5-1.1c2-.7,3.7-1.9,4.9-3.6s2.1-3.9,2.7-6.6c.6-2.8.8-6.1.8-10.1s-.3-7.4-.8-10.1c-.6-2.8-1.5-5-2.7-6.6ZM593.1,643.7c-.7,2.6-2,4.5-3.7,5.6s-4.1,1.7-7,1.7-5.3-.6-7-1.7c-1.7-1.1-3-3-3.7-5.6s-1.1-6.1-1.1-10.6.4-8,1.1-10.6,2-4.5,3.7-5.6,4.1-1.7,7-1.7,5.3.6,7,1.7c1.7,1.1,2.9,3,3.7,5.6.7,2.6,1.1,6.1,1.1,10.6s-.4,8-1.1,10.6Z" fill="none" stroke="#DC0119" stroke-width="3" stroke-linejoin="round" stroke-linecap="round" />
    <path class="st1" d="M645.4,644v5.9h-1.3c-.4-1-.9-1.9-1.4-2.9s-.9-1.9-1.4-2.7l-15.4-30.7c-.2-.4-.5-.8-.8-1s-.7-.3-1.2-.3h-4c-1.1,0-1.7.6-1.7,1.7v39.7h3.9v-37.8h1.1c.3.8.6,1.6,1.1,2.5.4.9.8,1.7,1.2,2.5l15.8,31.4c.2.4.5.8.8,1s.7.3,1.2.3h4.2c1.1,0,1.6-.6,1.6-1.7v-39.7h-3.9v31.7h.2Z" fill="none" stroke="#DC0119" stroke-width="3" stroke-linejoin="round" stroke-linecap="round" />
    <path class="st1" d="M693.5,635.6c-1.2-1.8-3.4-3-6.5-3.7l-8.7-1.8c-2-.4-3.5-1.1-4.4-2.2s-1.3-2.9-1.3-5.4.2-3.2.5-4.2.9-1.7,1.7-2.2c.8-.4,1.7-.7,2.9-.8s2.6-.2,4.2-.2,3.8,0,5.8,0c2,0,3.9.2,5.6.3l.3-2.9c-2-.4-4-.6-6-.8s-4-.3-5.9-.3-4.2,0-5.8.3-3,.7-4,1.4c-1.1.7-1.9,1.8-2.4,3.3s-.8,3.4-.8,5.9.6,5.7,1.8,7.5,3.3,3,6.3,3.6l8.8,1.9c1.4.2,2.5.6,3.3,1.2.9.5,1.5,1.3,1.9,2.3s.6,2.4.6,4.2-.3,3.8-.9,4.9c-.6,1.1-1.6,1.8-2.9,2.2-1.4.4-3.2.6-5.5.6h-3.5c-1.1,0-2.4,0-3.8,0-1.4,0-3.1,0-5.1-.2l-.3,2.9c2.7.4,5.1.7,7.3.8,2.1,0,3.9.2,5.3.2,2.3,0,4.3,0,5.9-.4,1.7-.3,3.1-.8,4.2-1.6,1.1-.8,1.9-1.9,2.5-3.3.6-1.5.8-3.4.8-5.9s-.6-5.9-1.8-7.7h0Z" fill="none" stroke="#DC0119" stroke-width="3" stroke-linejoin="round" stroke-linecap="round" />
  </g>
  <g>
    <path class="st1" d="M117,547.7c-1.7,0-3-.4-4-1.3s-1.5-2.1-1.5-3.6v-57.2h-21.5v62.3c0,5.1,1.6,9.3,4.8,12.5,3.2,3.2,7.6,4.8,13.4,4.8s12.5,0,18.9-.2c6.4-.1,12.4-.5,18.2-1.2l-1-16.2h-27.3Z" fill="none" stroke="#DC0119" stroke-width="3" stroke-linejoin="round" stroke-linecap="round" />
    <path class="st1" d="M207.7,487.1c-1.3-1-2.9-1.5-4.7-1.5h-19.9c-1.8,0-3.3.5-4.7,1.5-1.3,1-2.2,2.4-2.7,4.1l-21.7,73.7h22.1l4.8-18.9h24.3l4.8,18.9h22.1l-21.7-73.7c-.5-1.8-1.4-3.1-2.7-4.1h0ZM184.9,530.6l5.2-20.4c.3-1.3.6-2.7.9-4.2s.5-2.9.6-4.2h3.1c.2,1.3.5,2.7.7,4.2s.5,2.9.8,4.2l5.2,20.4h-16.5Z" fill="none" stroke="#DC0119" stroke-width="3" stroke-linejoin="round" stroke-linecap="round" />
    <path class="st1" d="M300.5,485.3h-13.2c-4.3,0-9.7,1.6-13.1,4.7-3.3,3.1-5,7.3-5,12.4v62.6h21.6v-32.1h29.4v-14.6h-29.4v-11.4c0-1.5.5-2.7,1.4-3.6,1-.9,2.3-1.3,4.1-1.3h28.2l1-15.3c-3.5-.5-7.5-.8-11.8-1s-8.8-.3-13.3-.3h.1Z" fill="none" stroke="#DC0119" stroke-width="3" stroke-linejoin="round" stroke-linecap="round" />
    <path class="st1" d="M360.4,503.2c.9-.9,2.2-1.3,3.9-1.3h29.7l1-15.4c-3.8-.5-7.9-.8-12.4-1s-9-.3-13.7-.3h-13.6c-5.3,0-9.6,1.6-12.9,4.7-3.3,3.1-4.9,7.2-4.9,12.4v46c0,5.1,1.6,9.2,4.9,12.3,3.3,3.1,7.6,4.7,12.9,4.7h13.6c4.6,0,9.2-.2,13.7-.3,4.5-.2,8.6-.5,12.4-.9l-1-15.4h-29.7c-1.7,0-3-.4-3.9-1.3s-1.4-2.1-1.4-3.6v-12.3h30.8v-14.6h-30.8v-9.9c0-1.5.5-2.7,1.4-3.6v-.2Z" fill="none" stroke="#DC0119" stroke-width="3" stroke-linejoin="round" stroke-linecap="round" />
    <path class="st1" d="M467.2,533.4c-1.4-1.7-3-3-4.6-3.7-1.6-.8-3.2-1.2-4.7-1.4v-.7c4-.5,7.1-1.6,9.4-3.3,2.3-1.7,3.9-4,4.9-6.7,1-2.8,1.4-5.8,1.4-9.2,0-6.2-1.1-11-3.3-14.4-2.2-3.4-5.6-5.8-10.3-7.3-4.7-1.5-10.7-2.2-18.2-2.2h-12.8c-3.5,0-6.8.1-9.8.3-3,.2-6.2.4-9.5.8v79.3h21.2v-30c2.9,0,6.2,0,10,.1,2.2,0,3.9.4,5.1,1.2s2,2.4,2.5,4.9l5.6,23.8h22.7l-6.6-24.5c-.6-3-1.6-5.3-3-7.1h0ZM451.1,515.7c-.6,1.4-1.7,2.4-3.2,2.9s-3.6.8-6.4.8h-10.6v-19.3h10.6c3.8,0,4.9.3,6.4.8s2.5,1.5,3.2,2.9c.6,1.4.9,3.4.9,6s-.3,4.5-.9,5.9h0Z" fill="none" stroke="#DC0119" stroke-width="3" stroke-linejoin="round" stroke-linecap="round" />
    <path class="st1" d="M547,533.4c-1.4-1.7-3-3-4.6-3.7-1.6-.8-3.2-1.2-4.7-1.4v-.7c4-.5,7.1-1.6,9.4-3.3,2.3-1.7,3.9-4,4.9-6.7,1-2.8,1.4-5.8,1.4-9.2,0-6.2-1.1-11-3.3-14.4-2.2-3.4-5.6-5.8-10.3-7.3-4.7-1.5-10.7-2.2-18.2-2.2h-12.8c-3.6,0-6.8.1-9.8.3-3,.2-6.2.4-9.5.8v79.3h21.2v-30c2.9,0,6.2,0,10,.1,2.2,0,3.9.4,5.1,1.2s2,2.4,2.5,4.9l5.6,23.8h22.7l-6.6-24.5c-.6-3-1.6-5.3-3-7.1h0ZM530.8,515.7c-.6,1.4-1.7,2.4-3.2,2.9s-3.6.8-6.4.8h-10.6v-19.3h10.6c3.8,0,4.9.3,6.4.8s2.5,1.5,3.2,2.9c.6,1.4.9,3.4.9,6s-.3,4.5-.9,5.9h0Z" fill="none" stroke="#DC0119" stroke-width="3" stroke-linejoin="round" stroke-linecap="round" />
    <path class="st1" d="M619.6,487.1c-1.3-1-2.9-1.5-4.7-1.5h-19.9c-1.8,0-3.3.5-4.7,1.5-1.3,1-2.2,2.4-2.7,4.1l-21.7,73.7h22.1l4.8-18.9h24.3l4.8,18.9h22.1l-21.7-73.7c-.5-1.8-1.4-3.1-2.7-4.1h0ZM596.8,530.6l5.2-20.4c.3-1.3.6-2.7.9-4.2.3-1.5.5-2.9.6-4.2h3.1c.2,1.3.5,2.7.7,4.2s.5,2.9.8,4.2l5.2,20.4h-16.5Z" fill="none" stroke="#DC0119" stroke-width="3" stroke-linejoin="round" stroke-linecap="round" />
    <path class="st1" d="M713,533.4c-1.4-1.7-3-3-4.6-3.7-1.6-.8-3.2-1.2-4.7-1.4v-.7c4-.5,7.1-1.6,9.4-3.3,2.3-1.7,3.9-4,4.9-6.7,1-2.8,1.4-5.8,1.4-9.2,0-6.2-1.1-11-3.3-14.4s-5.6-5.8-10.3-7.3-10.7-2.2-18.2-2.2h-12.8c-3.6,0-6.8.1-9.8.3-3,.2-6.2.4-9.5.8v79.3h21.2v-30c2.9,0,6.2,0,10,.1,2.2,0,3.9.4,5.1,1.2s2,2.4,2.5,4.9l5.6,23.8h22.7l-6.6-24.5c-.6-3-1.6-5.3-3-7.1h0ZM696.8,515.7c-.6,1.4-1.7,2.4-3.2,2.9s-3.6.8-6.4.8h-10.6v-19.3h10.6c3.8,0,4.9.3,6.4.8s2.5,1.5,3.2,2.9c.6,1.4.9,3.4.9,6s-.3,4.5-.9,5.9h0Z" fill="none" stroke="#DC0119" stroke-width="3" stroke-linejoin="round" stroke-linecap="round" />
    <path class="st1" d="M788,564.9h22.1l-21.7-73.7c-.5-1.8-1.4-3.1-2.7-4.1s-2.9-1.5-4.7-1.5h-19.9c-1.8,0-3.3.5-4.7,1.5-1.3,1-2.2,2.4-2.7,4.1l-21.7,73.7h22.1l4.8-18.9h24.3l4.8,18.9h0ZM762.8,530.6l5.2-20.4c.3-1.3.6-2.7.9-4.2.3-1.5.5-2.9.6-4.2h3.1c.2,1.3.5,2.7.7,4.2s.5,2.9.8,4.2l5.2,20.4h-16.5Z" fill="none" stroke="#DC0119" stroke-width="3" stroke-linejoin="round" stroke-linecap="round" />
  </g>
</svg>